<svg width="16" height="18" viewBox="0 0 16 18" fill="none" xmlns="http://www.w3.org/2000/svg">
<path d="M11.0218 7.375V3.625C11.0218 2.7962 10.6926 2.00134 10.1065 1.41529C9.5205 0.82924 8.72564 0.5 7.89684 0.5C7.06804 0.5 6.27318 0.82924 5.68713 1.41529C5.10108 2.00134 4.77184 2.7962 4.77184 3.625V7.375M14.2352 5.71417L15.2877 15.7142C15.346 16.2683 14.9127 16.75 14.3552 16.75H1.4385C1.30701 16.7501 1.17696 16.7226 1.0568 16.6692C0.936632 16.6158 0.829045 16.5377 0.741024 16.4401C0.653003 16.3424 0.586516 16.2273 0.545883 16.1022C0.50525 15.9771 0.491379 15.8449 0.505171 15.7142L1.5585 5.71417C1.5828 5.4838 1.69153 5.27058 1.86371 5.11563C2.0359 4.96068 2.25936 4.87496 2.491 4.875H13.3027C13.7827 4.875 14.1852 5.2375 14.2352 5.71417ZM5.08434 7.375C5.08434 7.45788 5.05141 7.53737 4.99281 7.59597C4.9342 7.65458 4.85472 7.6875 4.77184 7.6875C4.68896 7.6875 4.60947 7.65458 4.55087 7.59597C4.49226 7.53737 4.45934 7.45788 4.45934 7.375C4.45934 7.29212 4.49226 7.21263 4.55087 7.15403C4.60947 7.09542 4.68896 7.0625 4.77184 7.0625C4.85472 7.0625 4.9342 7.09542 4.99281 7.15403C5.05141 7.21263 5.08434 7.29212 5.08434 7.375ZM11.3343 7.375C11.3343 7.45788 11.3014 7.53737 11.2428 7.59597C11.1842 7.65458 11.1047 7.6875 11.0218 7.6875C10.939 7.6875 10.8595 7.65458 10.8009 7.59597C10.7423 7.53737 10.7093 7.45788 10.7093 7.375C10.7093 7.29212 10.7423 7.21263 10.8009 7.15403C10.8595 7.09542 10.939 7.0625 11.0218 7.0625C11.1047 7.0625 11.1842 7.09542 11.2428 7.15403C11.3014 7.21263 11.3343 7.29212 11.3343 7.375Z" stroke="#383838" stroke-linecap="round" stroke-linejoin="round"/>
</svg>
