<svg width="23" height="23" viewBox="0 0 23 23" fill="none" xmlns="http://www.w3.org/2000/svg">
<path d="M11.7184 13.6841L6.62562 18.8724C6.53501 18.9647 6.42369 19.0141 6.29166 19.0207C6.15963 19.0273 6.04184 18.9779 5.93829 18.8724C5.83473 18.7669 5.78296 18.6502 5.78296 18.5223C5.78296 18.3944 5.83473 18.2777 5.93829 18.1722L11.0311 12.9838L5.93829 7.79553C5.84768 7.70322 5.79914 7.58982 5.79267 7.45531C5.78619 7.32081 5.83473 7.20081 5.93829 7.09531C6.04184 6.98982 6.15639 6.93707 6.28195 6.93707C6.40751 6.93707 6.52206 6.98982 6.62562 7.09531L11.7184 12.2836L16.8113 7.09531C16.9019 7.00301 17.0135 6.95356 17.1462 6.94696C17.2776 6.94037 17.395 6.98982 17.4986 7.09531C17.6021 7.20081 17.6539 7.31751 17.6539 7.44542C17.6539 7.57333 17.6021 7.69003 17.4986 7.79553L12.4058 12.9838L17.4986 18.1722C17.5892 18.2645 17.6377 18.3782 17.6442 18.5134C17.6507 18.6472 17.6021 18.7669 17.4986 18.8724C17.395 18.9779 17.2805 19.0306 17.1549 19.0306C17.0294 19.0306 16.9148 18.9779 16.8113 18.8724L11.7184 13.6841Z" fill="#383838"/>
</svg>
