<svg width="15" height="15" viewBox="0 0 15 15" fill="none" xmlns="http://www.w3.org/2000/svg">
<path fill-rule="evenodd" clip-rule="evenodd" d="M2.65625 2.03125C2.28329 2.03125 1.9256 2.17941 1.66188 2.44313C1.39816 2.70685 1.25 3.06454 1.25 3.4375V10C1.25 10.373 1.39816 10.7306 1.66188 10.9944C1.9256 11.2581 2.28329 11.4063 2.65625 11.4063H2.68875C2.77144 11.8452 3.00488 12.2415 3.34872 12.5266C3.69256 12.8117 4.1252 12.9677 4.57188 12.9677C5.01855 12.9677 5.45119 12.8117 5.79503 12.5266C6.13887 12.2415 6.37231 11.8452 6.455 11.4063H8.7825C8.86519 11.8452 9.09863 12.2415 9.44247 12.5266C9.78631 12.8117 10.219 12.9677 10.6656 12.9677C11.1123 12.9677 11.5449 12.8117 11.8888 12.5266C12.2326 12.2415 12.4661 11.8452 12.5487 11.4063H13.75C13.8743 11.4063 13.9935 11.3569 14.0815 11.269C14.1694 11.1811 14.2188 11.0618 14.2188 10.9375C14.2188 10.8132 14.1694 10.694 14.0815 10.606C13.9935 10.5181 13.8743 10.4688 13.75 10.4688V7.75313C13.75 7.47188 13.6663 7.1975 13.5087 6.96563L11.9169 4.61188C11.7881 4.42154 11.6146 4.26568 11.4116 4.15792C11.2086 4.05016 10.9823 3.99379 10.7525 3.99375H9.84375V3.4375C9.84375 3.06454 9.69559 2.70685 9.43187 2.44313C9.16815 2.17941 8.81046 2.03125 8.4375 2.03125H2.65625ZM4.57188 9.1375C4.16597 9.13784 3.77063 9.26689 3.44271 9.5061C3.11478 9.7453 2.87116 10.0823 2.74688 10.4688H2.65625C2.53193 10.4688 2.4127 10.4194 2.32479 10.3315C2.23689 10.2435 2.1875 10.1243 2.1875 10V3.4375C2.1875 3.31318 2.23689 3.19395 2.32479 3.10604C2.4127 3.01814 2.53193 2.96875 2.65625 2.96875H8.4375C8.56182 2.96875 8.68105 3.01814 8.76896 3.10604C8.85686 3.19395 8.90625 3.31318 8.90625 3.4375V10.2938C8.88125 10.3508 8.85938 10.4092 8.84063 10.4688H6.39687C6.27259 10.0823 6.02897 9.7453 5.70104 9.5061C5.37312 9.26689 4.97778 9.13784 4.57188 9.1375ZM10.6656 9.1375C10.3719 9.1375 10.0925 9.20375 9.84375 9.3225V7.93438H12.8125V10.4688H12.4906C12.3663 10.0823 12.1227 9.7453 11.7948 9.5061C11.4669 9.26689 11.0715 9.13784 10.6656 9.1375ZM12.3981 6.99688H9.84375V4.93125H10.7525C10.829 4.93139 10.9043 4.95026 10.9719 4.98621C11.0394 5.02216 11.0971 5.07411 11.14 5.1375L12.3981 6.99688ZM9.6875 11.0531C9.6875 10.9247 9.7128 10.7975 9.76196 10.6788C9.81111 10.5601 9.88316 10.4523 9.97399 10.3615C10.0648 10.2707 10.1726 10.1986 10.2913 10.1495C10.41 10.1003 10.5372 10.075 10.6656 10.075C10.7941 10.075 10.9213 10.1003 11.0399 10.1495C11.1586 10.1986 11.2664 10.2707 11.3573 10.3615C11.4481 10.4523 11.5201 10.5601 11.5693 10.6788C11.6185 10.7975 11.6437 10.9247 11.6437 11.0531C11.6437 11.3125 11.5407 11.5613 11.3573 11.7448C11.1738 11.9282 10.925 12.0313 10.6656 12.0313C10.4062 12.0313 10.1574 11.9282 9.97399 11.7448C9.79055 11.5613 9.6875 11.3125 9.6875 11.0531ZM3.59375 11.0531C3.59375 10.9247 3.61905 10.7975 3.66821 10.6788C3.71736 10.5601 3.78941 10.4523 3.88024 10.3615C3.97106 10.2707 4.07889 10.1986 4.19756 10.1495C4.31623 10.1003 4.44343 10.075 4.57188 10.075C4.70032 10.075 4.82752 10.1003 4.94619 10.1495C5.06486 10.1986 5.17269 10.2707 5.26351 10.3615C5.35434 10.4523 5.42639 10.5601 5.47554 10.6788C5.5247 10.7975 5.55 10.9247 5.55 11.0531C5.55 11.3125 5.44695 11.5613 5.26351 11.7448C5.08008 11.9282 4.83129 12.0313 4.57188 12.0313C4.31246 12.0313 4.06367 11.9282 3.88024 11.7448C3.6968 11.5613 3.59375 11.3125 3.59375 11.0531Z" fill="#383838"/>
</svg>
