<?xml version="1.0" encoding="UTF-8"?><svg id="Livello_2" xmlns="http://www.w3.org/2000/svg" viewBox="0 0 160.63 133.85"><defs><style>.cls-1{fill:#383838;}</style></defs><g id="Livello_3"><path class="cls-1" d="M30.73,0V133.85H0V0H30.73ZM107.43,0c0,28.07-10.59,54.24-29.55,74.08l-1.86,1.89,42.45,57.89h-37.93l-46.13-62.91,11.91-8.91c19.13-14.32,30.35-35.99,31.03-59.73l.03-2.3h30.05Zm36.46,100.39c4.44,0,8.69,1.76,11.83,4.9,3.14,3.14,4.9,7.39,4.9,11.83s-1.76,8.69-4.9,11.83c-3.14,3.14-7.39,4.9-11.83,4.9s-8.69-1.76-11.83-4.9c-3.14-3.14-4.9-7.39-4.9-11.83s1.76-8.69,4.9-11.83c3.14-3.14,7.39-4.9,11.83-4.9Z"/></g></svg>