<?xml version="1.0" encoding="UTF-8"?><svg id="Livello_2" xmlns="http://www.w3.org/2000/svg" viewBox="0 0 173.79 135.17"><defs><style>.cls-1{fill:#383838;}</style></defs><g id="Livello_3"><path class="cls-1" d="M145.7,113.84c0,2.05-1.39,3.53-3.38,3.53s-3.38-1.57-3.38-3.53,1.33-3.53,3.38-3.53,3.38,1.57,3.38,3.53Zm-93.77-3.53c-2.14,0-3.38,1.57-3.38,3.53s1.24,3.53,3.38,3.53c1.96,0,3.29-1.48,3.29-3.53-.03-1.96-1.33-3.53-3.29-3.53Zm35.45-.09c-1.63,0-2.62,1.06-2.87,2.62h5.76c-.27-1.72-1.33-2.62-2.9-2.62Zm32.53,.09c-2.05,0-3.29,1.57-3.29,3.53s1.24,3.53,3.29,3.53,3.38-1.48,3.38-3.53-1.33-3.53-3.38-3.53Zm31.95,7.88c0,.09,.09,.15,.09,.33,0,.09-.09,.15-.09,.33-.09,.09-.09,.15-.15,.24-.09,.09-.15,.15-.33,.15-.09,.09-.15,.09-.33,.09-.09,0-.15,0-.33-.09-.09,0-.15-.09-.24-.15-.09-.09-.15-.15-.15-.24-.09-.15-.09-.24-.09-.33,0-.15,0-.24,.09-.33,0-.15,.09-.24,.15-.33,.09-.09,.15-.09,.24-.15,.15-.09,.24-.09,.33-.09,.15,0,.24,0,.33,.09,.15,.09,.24,.09,.33,.15s.06,.18,.15,.33Zm-.66,.42c.15,0,.15-.09,.24-.09,.09-.09,.09-.15,.09-.24s0-.15-.09-.24c-.09,0-.15-.09-.33-.09h-.48v1.06h.24v-.42h.09l.33,.42h.24l-.33-.39ZM173.79,14.48V120.69c0,8-6.49,14.48-14.48,14.48H14.48c-8,0-14.48-6.49-14.48-14.48V14.48C0,6.49,6.49,0,14.48,0H159.31c8,0,14.48,6.49,14.48,14.48ZM19.31,56.6c0,23.08,18.74,41.79,41.79,41.79,8.21,0,16.26-2.47,23.08-6.97-22-17.89-21.84-51.65,0-69.55-6.82-4.53-14.87-6.97-23.08-6.97-23.05-.03-41.79,18.71-41.79,41.7Zm67.58,32.83c21.27-16.59,21.18-48.94,0-65.62-21.18,16.69-21.27,49.06,0,65.62Zm-42.93,23.02c0-2.62-1.72-4.34-4.44-4.44-1.39,0-2.87,.42-3.86,1.96-.72-1.24-1.96-1.96-3.68-1.96-1.15,0-2.29,.42-3.2,1.63v-1.33h-2.47v11.07h2.47c0-5.7-.75-9.11,2.72-9.11,3.08,0,2.47,3.08,2.47,9.11h2.38c0-5.52-.75-9.11,2.72-9.11,3.08,0,2.47,3.02,2.47,9.11h2.47v-6.94h-.06Zm13.55-4.13h-2.38v1.33c-.81-1-1.96-1.63-3.53-1.63-3.11,0-5.49,2.47-5.49,5.82s2.38,5.82,5.49,5.82c1.57,0,2.72-.57,3.53-1.63v1.39h2.38v-11.1Zm12.22,7.72c0-4.53-6.91-2.47-6.91-4.59,0-1.72,3.59-1.45,5.58-.33l1-1.96c-2.84-1.84-9.11-1.81-9.11,2.47s6.91,2.5,6.91,4.53c0,1.9-4.07,1.75-6.25,.24l-1.06,1.9c3.38,2.29,9.84,1.81,9.84-2.26Zm10.68,2.81l-.66-2.05c-1.15,.63-3.68,1.33-3.68-1.24v-5.01h3.95v-2.23h-3.95v-3.38h-2.47v3.38h-2.29v2.2h2.29v5.04c0,5.31,5.22,4.34,6.82,3.29Zm4.01-4.04h8.3c0-4.89-2.23-6.82-5.25-6.82-3.2,0-5.49,2.38-5.49,5.82,0,6.19,6.82,7.21,10.2,4.28l-1.15-1.81c-2.35,1.93-5.91,1.75-6.61-1.48Zm17.83-6.49c-1.39-.6-3.5-.54-4.59,1.33v-1.33h-2.47v11.07h2.47v-6.24c0-3.5,2.87-3.05,3.86-2.53l.72-2.29Zm3.2,5.52c0-3.44,3.5-4.56,6.25-2.53l1.15-1.96c-3.5-2.75-9.87-1.24-9.87,4.53s6.76,7.18,9.87,4.53l-1.15-1.96c-2.78,1.96-6.25,.78-6.25-2.59Zm20.12-5.52h-2.47v1.33c-2.5-3.32-9.02-1.45-9.02,4.19s6.76,7.45,9.02,4.19v1.39h2.47v-11.1Zm10.17,0c-.72-.36-3.32-.87-4.59,1.33v-1.33h-2.38v11.07h2.38v-6.24c0-3.32,2.72-3.11,3.86-2.53l.72-2.29Zm12.16-4.5h-2.38v5.82c-2.47-3.29-9.02-1.54-9.02,4.19s6.79,7.42,9.02,4.19v1.39h2.38v-15.6Zm2.29-22.66v1.39h.24v-1.39h.57v-.24h-1.39v.24h.57Zm1.99,37.35c0-.15,0-.33-.09-.48-.09-.09-.15-.24-.24-.33-.09-.09-.24-.15-.33-.24-.15,0-.33-.09-.48-.09-.09,0-.24,.09-.42,.09-.15,.09-.24,.15-.33,.24-.15,.09-.24,.24-.24,.33-.09,.15-.09,.33-.09,.48,0,.09,0,.24,.09,.42,0,.09,.09,.24,.24,.33,.09,.09,.15,.15,.33,.24,.15,.09,.33,.09,.42,.09,.15,0,.33,0,.48-.09,.09-.09,.24-.15,.33-.24,.09-.09,.15-.24,.24-.33,.09-.18,.09-.33,.09-.42Zm.97-37.62h-.42l-.48,1.06-.48-1.06h-.42v1.63h.24v-1.24l.48,1.06h.33l.42-1.06v1.24h.33v-1.63Zm1.33-24.29c0-22.99-18.74-41.73-41.79-41.73-8.21,0-16.26,2.47-23.08,6.97,21.75,17.89,22.09,51.74,0,69.55,6.82,4.53,14.93,6.97,23.08,6.97,23.05,.03,41.79-18.68,41.79-41.76Z"/></g></svg>