<?xml version="1.0" encoding="utf-8"?>
<!-- Generator: Adobe Illustrator 27.0.0, SVG Export Plug-In . SVG Version: 6.00 Build 0)  -->
<svg version="1.1" id="Livello_1" xmlns="http://www.w3.org/2000/svg" xmlns:xlink="http://www.w3.org/1999/xlink" x="0px" y="0px"
	 viewBox="0 0 578 176" style="enable-background:new 0 0 578 176;" xml:space="preserve">
<style type="text/css">
	.st0{fill:#383838;}
</style>
<g id="_x30_2-Secondary-_x28_Horizontal_x29__x2F_Flat_x2F_Black_x2F_Swish_x5F_Logo_x5F_Secondary_x5F_Black">
	<g id="Wordmark_x2F_Swish" transform="translate(222.000000, 33.000000)">
		<path id="swish_xAE_" class="st0" d="M327.1,15.9c0-2,0.4-3.9,1.1-5.7s1.8-3.3,3-4.6c1.3-1.3,2.8-2.4,4.5-3.1
			c1.7-0.8,3.6-1.1,5.5-1.1c2,0,3.9,0.4,5.6,1.1c1.7,0.8,3.3,1.8,4.6,3.1c1.3,1.3,2.3,2.9,3.1,4.6c0.7,1.8,1.1,3.7,1.1,5.7
			s-0.4,3.9-1.1,5.7c-0.7,1.8-1.8,3.3-3.1,4.6c-1.3,1.3-2.8,2.4-4.6,3.1c-1.7,0.8-3.6,1.1-5.6,1.1c-2,0-3.8-0.4-5.5-1.1
			c-1.7-0.8-3.2-1.8-4.5-3.1c-1.3-1.3-2.3-2.9-3-4.6C327.4,19.8,327.1,17.9,327.1,15.9z M330,15.9c0,1.7,0.3,3.2,0.9,4.7
			c0.6,1.4,1.4,2.7,2.4,3.8s2.2,1.9,3.6,2.5s2.9,0.9,4.5,0.9c1.6,0,3.1-0.3,4.5-0.9c1.4-0.6,2.6-1.5,3.6-2.5c1-1.1,1.8-2.3,2.4-3.8
			c0.6-1.4,0.9-3,0.9-4.7s-0.3-3.2-0.9-4.7c-0.6-1.4-1.4-2.7-2.4-3.8c-1-1.1-2.2-1.9-3.6-2.5c-1.4-0.6-2.9-0.9-4.5-0.9
			c-1.6,0-3.1,0.3-4.5,0.9s-2.6,1.5-3.6,2.5s-1.8,2.3-2.4,3.8S330,14.2,330,15.9z M336.4,9.6c0-0.9,0.4-1.3,1.3-1.3h4.5
			c1.4,0,2.6,0.4,3.4,1.2c0.9,0.8,1.3,1.9,1.3,3.4c0,0.6-0.1,1.1-0.3,1.6c-0.2,0.5-0.4,0.8-0.7,1.2c-0.3,0.3-0.6,0.6-0.9,0.8
			c-0.3,0.2-0.6,0.4-1,0.4V17c0,0,0.1,0.1,0.1,0.2c0.1,0.1,0.1,0.1,0.2,0.3c0.1,0.1,0.1,0.3,0.2,0.4l2.1,4c0.2,0.5,0.3,0.8,0.2,1.1
			c-0.1,0.3-0.4,0.4-0.9,0.4h-0.5c-0.7,0-1.3-0.3-1.6-1l-2.3-4.9h-2.5v4.6c0,0.9-0.4,1.3-1.2,1.3h-0.4c-0.8,0-1.2-0.4-1.2-1.3V9.6z
			 M341.6,15.5c0.8,0,1.4-0.2,1.8-0.7c0.4-0.5,0.6-1.1,0.6-1.9c0-0.8-0.2-1.4-0.6-1.8c-0.4-0.4-1-0.6-1.8-0.6h-2.4v5H341.6z M225,25
			c4.5,0,8.4,0.6,11.5,1.7s5.6,2.2,7.4,3.2c1.5,0.8,2.4,1.9,2.7,3.2s0,2.8-0.7,4.3l-1.3,2.4c-0.8,1.6-1.8,2.5-3.1,2.8
			s-2.7,0-4.4-0.7c-1.5-0.7-3.3-1.4-5.5-2.2c-2.1-0.8-4.6-1.1-7.4-1.1c-2.9,0-5.2,0.6-6.8,1.7c-1.6,1.2-2.4,2.8-2.4,4.9
			c0,1.9,0.8,3.4,2.5,4.5c1.6,1.2,3.7,2.2,6.3,3.1c2.5,0.9,5.2,1.8,8.1,2.9c2.9,1,5.6,2.3,8.1,3.9c2.5,1.6,4.6,3.6,6.3,6.1
			c1.6,2.5,2.5,5.6,2.5,9.5c0,3-0.6,5.8-1.8,8.3s-2.9,4.7-5.2,6.6c-2.3,1.9-5,3.3-8.2,4.4c-3.2,1.1-6.7,1.6-10.6,1.6
			c-5.5,0-10.1-0.8-13.9-2.4s-6.7-3.1-8.7-4.5c-1.5-0.9-2.3-2-2.5-3.3c-0.2-1.3,0.2-2.8,1.2-4.3l1.6-2.4c1-1.4,2.1-2.2,3.3-2.4
			c1.2-0.2,2.6,0.2,4.3,1.1c1.6,0.9,3.7,1.9,6.2,3c2.5,1.1,5.5,1.7,9,1.7c2.9,0,5.2-0.6,6.9-1.9c1.7-1.2,2.5-2.9,2.5-5.1
			c0-1.9-0.8-3.4-2.5-4.5c-1.6-1.1-3.7-2.1-6.3-3.1c-2.5-0.9-5.2-1.9-8.1-3c-2.9-1.1-5.6-2.4-8.1-4s-4.6-3.6-6.3-6.1
			c-1.6-2.5-2.5-5.7-2.5-9.6c0-3.3,0.7-6.2,2.1-8.8c1.4-2.6,3.2-4.7,5.6-6.4c2.3-1.7,5.1-3,8.2-3.9S221.5,25,225,25z M27.3,25
			c4.5,0,8.4,0.6,11.5,1.7s5.6,2.2,7.4,3.2c1.5,0.8,2.4,1.9,2.7,3.2c0.3,1.3,0,2.8-0.7,4.3l-1.3,2.4c-0.8,1.6-1.8,2.5-3.1,2.8
			s-2.7,0-4.4-0.7c-1.5-0.7-3.3-1.4-5.5-2.2s-4.6-1.1-7.4-1.1c-2.9,0-5.2,0.6-6.8,1.7c-1.6,1.2-2.4,2.8-2.4,4.9
			c0,1.9,0.8,3.4,2.5,4.5c1.6,1.2,3.7,2.2,6.3,3.1c2.5,0.9,5.2,1.8,8.1,2.9c2.9,1,5.6,2.3,8.1,3.9c2.5,1.6,4.6,3.6,6.3,6.1
			c1.6,2.5,2.5,5.6,2.5,9.5c0,3-0.6,5.8-1.8,8.3s-2.9,4.7-5.2,6.6c-2.3,1.9-5,3.3-8.2,4.4c-3.2,1.1-6.7,1.6-10.6,1.6
			c-5.5,0-10.1-0.8-13.9-2.4s-6.7-3.1-8.7-4.5c-1.5-0.9-2.3-2-2.5-3.3c-0.2-1.3,0.2-2.8,1.2-4.3l1.6-2.4c1-1.4,2.1-2.2,3.3-2.4
			c1.2-0.2,2.6,0.2,4.3,1.1c1.6,0.9,3.7,1.9,6.2,3c2.5,1.1,5.5,1.7,9,1.7c2.9,0,5.2-0.6,6.9-1.9c1.7-1.2,2.5-2.9,2.5-5.1
			c0-1.9-0.8-3.4-2.5-4.5c-1.6-1.1-3.7-2.1-6.3-3.1s-5.2-1.9-8.1-3s-5.6-2.4-8.1-4S5.5,57.5,3.8,55c-1.6-2.5-2.5-5.7-2.5-9.6
			c0-3.3,0.7-6.2,2.1-8.8c1.4-2.6,3.2-4.7,5.6-6.4c2.3-1.7,5.1-3,8.2-3.9S23.8,25,27.3,25z M269.8,0c3.7,0,5.6,1.9,5.6,5.6V33
			c0,0.9,0,1.7-0.1,2.3c0,0.7-0.1,1.3-0.2,1.8c-0.1,0.6-0.1,1.2-0.1,1.6h0.3c0.8-1.6,1.9-3.2,3.4-4.9c1.5-1.6,3.2-3.1,5.2-4.5
			s4.3-2.4,6.8-3.2s5.3-1.2,8.2-1.2c7.5,0,13.4,2,17.5,6.1c4.1,4.1,6.2,10.7,6.2,19.7V89c0,3.7-1.9,5.6-5.6,5.6h-5.7
			c-3.7,0-5.6-1.9-5.6-5.6V54.3c0-4.2-0.7-7.5-2.1-10.1c-1.4-2.5-4.3-3.8-8.5-3.8c-2.9,0-5.6,0.6-8,1.7s-4.5,2.7-6.2,4.7
			c-1.7,2-3,4.4-3.9,7.1c-0.9,2.8-1.4,5.7-1.4,8.9v26c0,3.7-1.9,5.6-5.6,5.6h-5.7c-3.7,0-5.6-1.9-5.6-5.6V5.6c0-3.7,1.9-5.6,5.6-5.6
			H269.8z M181.5,26.6c3.6,0,5.5,1.9,5.5,5.6V89c0,3.7-1.8,5.6-5.5,5.6h-5.9c-3.6,0-5.5-1.9-5.5-5.6V32.2c0-3.7,1.8-5.6,5.5-5.6
			H181.5z M68.6,26.6c3.4,0,5.4,1.6,6,4.9l10.9,39.7c0.2,1,0.3,1.9,0.5,2.7c0.1,0.8,0.3,1.6,0.5,2.3c0.2,0.8,0.3,1.6,0.4,2.3h0.3
			c0.1-0.7,0.2-1.5,0.4-2.3c0.2-0.7,0.3-1.5,0.5-2.3c0.1-0.8,0.3-1.7,0.6-2.7L100,31.6c0.6-3.2,2.7-4.8,6.1-4.8h5.1
			c3.3,0,5.3,1.6,6.1,4.8l11.3,39.7c0.3,1,0.5,1.9,0.6,2.7c0.1,0.8,0.3,1.6,0.5,2.3c0.2,0.8,0.3,1.6,0.4,2.3h0.3
			c0.1-0.7,0.2-1.5,0.4-2.3c0.2-0.7,0.3-1.5,0.5-2.3c0.1-0.8,0.3-1.7,0.6-2.7l10.8-39.7c0.8-3.3,2.8-4.9,6.1-4.9h6.1
			c2,0,3.5,0.6,4.3,1.7s0.9,2.7,0.4,4.5l-17.4,57c-0.9,3.1-3,4.7-6.3,4.7h-8.9c-3.4,0-5.5-1.6-6.3-4.8l-10.2-34
			c-0.3-0.9-0.5-1.8-0.7-2.7s-0.4-1.7-0.5-2.4c-0.2-0.8-0.3-1.6-0.4-2.3h-0.3c-0.2,0.7-0.4,1.5-0.5,2.3c-0.2,0.7-0.4,1.5-0.5,2.4
			c-0.2,0.9-0.4,1.8-0.7,2.7l-10.2,34c-0.8,3.2-2.8,4.8-6.1,4.8h-9.2c-3.2,0-5.2-1.6-6.1-4.7l-17.6-57C57,31,57.2,29.5,58,28.4
			s2.2-1.7,4.2-1.7H68.6z"/>
	</g>
	<g id="Symbol_x2F_Black">
		<g id="Right-Swirl" transform="translate(50.005869, 20.581194)">
			<path id="Base-Shape" class="st0" d="M0,146.7c35.3,16.9,78.9,8.5,105.2-22.8C136.5,86.6,131.6,31.2,94.4,0L69.7,29.5
				c29.1,24.4,32.8,67.7,8.5,96.7C58.7,149.4,26.7,157.1,0,146.7"/>
		</g>
		<g id="Left-Swirl">
			<path id="Base-shape" class="st0" d="M125.8,8.6C90.5-8.3,46.9,0,20.6,31.4C-10.6,68.6-5.8,124,31.4,155.2l24.7-29.5
				C27.1,101.4,23.3,58.1,47.7,29C67.1,5.9,99.1-1.9,125.8,8.6"/>
		</g>
	</g>
</g>
</svg>
