<?xml version="1.0" encoding="UTF-8"?><svg id="Livello_2" xmlns="http://www.w3.org/2000/svg" viewBox="0 0 173.13 134.66"><defs><style>.cls-1{fill:#383838;}</style></defs><g id="Livello_2-2"><path class="cls-1" d="M141.3,59.91s2.28,11.18,2.8,13.53h-10.04l4.81-13.08c-.06,.09,.99-2.74,1.59-4.48l.84,4.03Zm31.83-45.48V120.23c0,3.83-1.52,7.5-4.23,10.2-2.71,2.7-6.38,4.23-10.2,4.23H14.43c-3.83,0-7.5-1.52-10.2-4.23C1.52,127.73,0,124.06,0,120.23V14.43c0-3.83,1.52-7.5,4.23-10.2C6.93,1.52,10.6,0,14.43,0H158.7c3.83,0,7.5,1.52,10.2,4.23,2.7,2.71,4.23,6.37,4.23,10.2ZM45.84,89.93l18.99-46.65h-12.77l-11.81,31.86-1.29-6.46-4.21-21.46c-.69-2.98-2.82-3.82-5.47-3.94H9.84l-.21,.93c4.45,1.09,8.72,2.82,12.68,5.14l10.76,40.58h12.77Zm28.38,.06l7.57-46.71h-12.08l-7.54,46.71h12.05Zm42.05-15.27c.06-5.32-3.19-9.38-10.13-12.71-4.24-2.14-6.82-3.58-6.82-5.77,.06-1.99,2.2-4.03,6.94-4.03,3.09-.09,6.16,.52,8.99,1.77l1.08,.51,1.66-10.1c-3.45-1.32-7.12-2-10.82-1.99-11.93,0-20.32,6.37-20.38,15.45-.09,6.7,6.01,10.43,10.58,12.68,4.66,2.28,6.25,3.79,6.25,5.8-.06,3.13-3.79,4.57-7.24,4.57-4.81,0-7.4-.75-11.33-2.49l-1.59-.75-1.68,10.49c2.82,1.29,8.06,2.43,13.47,2.49,12.68,.03,20.95-6.25,21.04-15.93v.02Zm42.43,15.27l-9.74-46.71h-9.35c-2.88,0-5.08,.84-6.31,3.88l-17.95,42.83h12.68s2.07-5.77,2.53-7h15.51c.36,1.66,1.44,7,1.44,7h11.18Z"/></g></svg>